<svg width="24" height="24" viewBox="0 0 24 24" fill="none" xmlns="http://www.w3.org/2000/svg">
<g clip-path="url(#clip0_3_6019)">
<mask id="mask0_3_6019" style="mask-type:alpha" maskUnits="userSpaceOnUse" x="0" y="0" width="24" height="24">
<rect width="24" height="24" fill="white"/>
</mask>
<g mask="url(#mask0_3_6019)">
<path d="M18 8C18 6.4087 17.3679 4.88258 16.2426 3.75736C15.1174 2.63214 13.5913 2 12 2C10.4087 2 8.88258 2.63214 7.75736 3.75736C6.63214 4.88258 6 6.4087 6 8C6 15 3 17 3 17H21C21 17 18 15 18 8Z" fill="#242424" stroke="#242424" stroke-width="1.5" stroke-linejoin="round"/>
<path fill-rule="evenodd" clip-rule="evenodd" d="M9.89357 20.3513C10.2519 20.1434 10.7108 20.2654 10.9186 20.6237C11.0285 20.8131 11.1862 20.9703 11.376 21.0796C11.5658 21.1889 11.7809 21.2465 11.9999 21.2465C12.2189 21.2465 12.434 21.1889 12.6238 21.0796C12.8135 20.9703 12.9713 20.8131 13.0811 20.6237C13.289 20.2654 13.7479 20.1434 14.1062 20.3513C14.4645 20.5591 14.5865 21.018 14.3786 21.3763C14.1369 21.7931 13.7899 22.139 13.3725 22.3794C12.955 22.6199 12.4817 22.7465 11.9999 22.7465C11.5181 22.7465 11.0448 22.6199 10.6273 22.3794C10.2099 22.139 9.86289 21.7931 9.62115 21.3763C9.41331 21.018 9.53528 20.5591 9.89357 20.3513Z" fill="#242424"/>
</g>
</g>
<defs>
<clipPath id="clip0_3_6019">
<rect width="24" height="24" fill="white"/>
</clipPath>
</defs>
</svg>
